<svg width="14" height="14" viewBox="0 0 14 14" fill="none" xmlns="http://www.w3.org/2000/svg">
<path fill-rule="evenodd" clip-rule="evenodd" d="M0.279666 0.279666C0.368093 0.191016 0.47314 0.120681 0.588791 0.0726914C0.704442 0.0247015 0.828424 0 0.953637 0C1.07885 0 1.20283 0.0247015 1.31848 0.0726914C1.43413 0.120681 1.53918 0.191016 1.62761 0.279666L6.66525 5.31921L11.7029 0.279666C11.7914 0.191159 11.8965 0.120951 12.0121 0.0730518C12.1278 0.0251521 12.2517 0.000498402 12.3769 0.000498402C12.502 0.000498402 12.626 0.0251521 12.7416 0.0730518C12.8573 0.120951 12.9623 0.191159 13.0508 0.279666C13.1393 0.368173 13.2095 0.473246 13.2574 0.588886C13.3053 0.704526 13.33 0.828469 13.33 0.953637C13.33 1.0788 13.3053 1.20275 13.2574 1.31839C13.2095 1.43403 13.1393 1.5391 13.0508 1.62761L8.01129 6.66525L13.0508 11.7029C13.1393 11.7914 13.2095 11.8965 13.2574 12.0121C13.3053 12.1278 13.33 12.2517 13.33 12.3769C13.33 12.502 13.3053 12.626 13.2574 12.7416C13.2095 12.8573 13.1393 12.9623 13.0508 13.0508C12.9623 13.1393 12.8573 13.2095 12.7416 13.2574C12.626 13.3053 12.502 13.33 12.3769 13.33C12.2517 13.33 12.1278 13.3053 12.0121 13.2574C11.8965 13.2095 11.7914 13.1393 11.7029 13.0508L6.66525 8.01129L1.62761 13.0508C1.5391 13.1393 1.43403 13.2095 1.31839 13.2574C1.20275 13.3053 1.0788 13.33 0.953637 13.33C0.828469 13.33 0.704526 13.3053 0.588886 13.2574C0.473246 13.2095 0.368173 13.1393 0.279666 13.0508C0.191159 12.9623 0.120951 12.8573 0.0730518 12.7416C0.0251521 12.626 0.000498402 12.502 0.000498402 12.3769C0.000498402 12.2517 0.0251521 12.1278 0.0730518 12.0121C0.120951 11.8965 0.191159 11.7914 0.279666 11.7029L5.31921 6.66525L0.279666 1.62761C0.191016 1.53918 0.120681 1.43413 0.0726914 1.31848C0.0247015 1.20283 0 1.07885 0 0.953637C0 0.828424 0.0247015 0.704442 0.0726914 0.588791C0.120681 0.47314 0.191016 0.368093 0.279666 0.279666Z" fill="black"/>
</svg>
