<svg width="21" height="21" viewBox="0 0 21 21" fill="none" xmlns="http://www.w3.org/2000/svg">
<g clip-path="url(#clip0_1139_2183)">
<path fill-rule="evenodd" clip-rule="evenodd" d="M1.3444 15.6373L0.0300173 20.0386C-0.04509 20.2865 0.0149958 20.5494 0.180232 20.7446C0.345468 20.9399 0.608343 21.0376 0.856198 20.9925L6.39912 20.1663C7.65341 20.6996 9.04289 21 10.4925 21C16.2907 21 20.9925 16.2908 20.9925 10.5C20.9925 4.70923 16.2983 0 10.5 0C4.70169 0 -2.56154e-05 4.70172 -2.56154e-05 10.5C-2.56154e-05 12.3627 0.488172 14.1202 1.3444 15.6373ZM2.87658 15.7575C2.93667 15.5547 2.90663 15.3369 2.80148 15.1567C1.98281 13.7972 1.50963 12.2049 1.50963 10.5075C1.50212 5.53541 5.53538 1.50215 10.5 1.50215C15.4646 1.50215 19.4978 5.53541 19.4978 10.5C19.4978 15.4646 15.4646 19.4979 10.5 19.4979C9.1856 19.4979 7.93882 19.2124 6.81221 18.7092C6.68452 18.6491 6.53431 18.6266 6.39161 18.6491L1.80255 19.3326L2.86907 15.7575H2.87658ZM10.515 13.5193C10.9281 13.5193 11.2661 13.8573 11.2661 14.2704C11.2661 14.6835 10.9281 15.0215 10.515 15.0215C10.1019 15.0215 9.76392 14.6835 9.76392 14.2704C9.76392 13.8573 10.1019 13.5193 10.515 13.5193ZM9.76392 5.25751V12.0172C9.76392 12.4303 10.1019 12.7682 10.515 12.7682C10.9281 12.7682 11.2661 12.4303 11.2661 12.0172V5.25751C11.2661 4.84442 10.9281 4.50644 10.515 4.50644C10.1019 4.50644 9.76392 4.84442 9.76392 5.25751Z" fill="black"/>
</g>
<defs>
<clipPath id="clip0_1139_2183">
<rect width="21" height="21" fill="white"/>
</clipPath>
</defs>
</svg>
