<svg width="21" height="21" viewBox="0 0 21 21" fill="none" xmlns="http://www.w3.org/2000/svg">
<g clip-path="url(#clip0_1139_2165)">
<path d="M20.9091 0.34696C20.9039 0.333915 20.9013 0.32087 20.8934 0.310433C20.8726 0.26608 20.8465 0.221727 20.8126 0.187809C20.776 0.151283 20.7343 0.125193 20.6873 0.104321C20.6769 0.0991028 20.6639 0.0938848 20.6534 0.0912757C20.6143 0.0782306 20.5752 0.0704036 20.5334 0.0677946C20.5256 0.0677946 20.5178 0.0651855 20.51 0.0651855C20.4682 0.0651855 20.4239 0.0704036 20.3821 0.0860577L0.352565 6.76254C0.185608 6.81733 0.0708257 6.97387 0.0656083 7.15128C0.0603909 7.3287 0.169956 7.48785 0.334304 7.55307L9.80387 11.1953L13.4456 20.666C13.5082 20.8278 13.6647 20.9347 13.8369 20.9347H13.8473C14.0247 20.9321 14.1787 20.8173 14.236 20.6477L20.9143 0.61308C20.9273 0.571335 20.9326 0.529591 20.9352 0.487847C20.9352 0.477411 20.9326 0.469584 20.9326 0.459148C20.9326 0.422621 20.9221 0.386095 20.9091 0.34696ZM1.72735 7.19042L18.963 1.44536L10.0256 10.3813L1.72735 7.19042ZM13.8108 19.2754L10.6204 10.9761L19.5578 2.0376L13.8108 19.2754Z" fill="black" stroke="black" stroke-width="0.5" stroke-miterlimit="10"/>
</g>
<defs>
<clipPath id="clip0_1139_2165">
<rect width="21" height="21" fill="white"/>
</clipPath>
</defs>
</svg>
