<svg width="17" height="20" viewBox="0 0 17 20" fill="none" xmlns="http://www.w3.org/2000/svg">
<g clip-path="url(#clip0_1139_2189)">
<path d="M15.9473 1.08953C13.5346 3.00316 9.57885 1.32874 9.53962 1.31545C3.42615 -1.2892 0.405385 0.763953 0.281154 0.850332C0.0980769 0.983223 0.0130769 1.1892 0.0130769 1.39518H0V19.9998H1.30769V12.6178C3.995 10.9301 8.31692 12.9035 8.34308 12.9234C10.1804 13.847 11.7104 14.1593 12.9462 14.1593C15.4504 14.1593 16.7319 12.8703 16.8104 12.7905L16.9935 12.5978V0.25897L15.9408 1.09618L15.9473 1.08953ZM15.6923 12.0198C15.0712 12.4849 12.8742 13.7208 8.90538 11.7274C8.70923 11.6344 4.53115 9.72076 1.30769 11.1294V1.8005C2.11846 1.44169 4.65539 0.677575 9.02308 2.53804C9.19308 2.61113 12.7762 4.13272 15.6923 2.78389V12.0198Z" fill="black"/>
</g>
<defs>
<clipPath id="clip0_1139_2189">
<rect width="17" height="20" fill="white"/>
</clipPath>
</defs>
</svg>
