<svg width="17" height="18" viewBox="0 0 17 18" fill="none" xmlns="http://www.w3.org/2000/svg">
<g clip-path="url(#clip0_1139_2185)">
<path d="M16.8119 16.6371L15.0162 14.7921V0.642839C15.0162 0.417839 14.9035 0.205696 14.7096 0.0899819C14.5219 -0.0257324 14.2841 -0.0321609 14.0901 0.0771248L6.12511 4.4807L4.83619 4.33284L2.16449 1.58141C1.92047 1.3307 1.52629 1.3307 1.28227 1.58141C1.03825 1.83212 1.03825 2.23712 1.28227 2.48784L2.85901 4.10784L0.700375 3.86355C0.525182 3.84427 0.349989 3.90212 0.212337 4.02427C0.0809422 4.14641 0.00585938 4.31998 0.00585938 4.50641V13.5064C0.00585938 13.6864 0.0809422 13.8664 0.212337 13.9886C0.343732 14.1107 0.525182 14.1686 0.700375 14.1493L6.16265 13.5257L14.0964 17.9357C14.1903 17.9871 14.2904 18.0128 14.3967 18.0128C14.5094 18.0128 14.6157 17.9807 14.7158 17.9228C14.9035 17.8071 15.0224 17.595 15.0224 17.37V16.6178L15.9359 17.5564C16.0611 17.685 16.2175 17.7428 16.3802 17.7428C16.5428 17.7428 16.6993 17.6786 16.8244 17.5564C17.0684 17.3057 17.0684 16.9007 16.8244 16.65L16.8119 16.6371ZM6.55058 5.70855L13.7648 1.71641V13.5L6.25025 5.77927C6.35661 5.77927 6.46298 5.75998 6.55683 5.70855H6.55058ZM13.7648 16.2771L6.68197 12.3428C6.63817 12.3171 6.59438 12.3043 6.55058 12.2914C6.44421 12.2336 6.31907 12.2014 6.18768 12.2207L1.25098 12.7864V5.21998L4.26681 5.56712L13.7648 15.3257V16.2836V16.2771Z" fill="black"/>
</g>
<defs>
<clipPath id="clip0_1139_2185">
<rect width="17" height="18" fill="white"/>
</clipPath>
</defs>
</svg>
