<svg width="28" height="30" viewBox="0 0 28 30" fill="none" xmlns="http://www.w3.org/2000/svg">
<path d="M19.1297 19.449L19.1297 19.4491C19.1442 19.4409 19.1587 19.4325 19.1733 19.4242C19.2528 19.3787 19.3343 19.332 19.4201 19.2898C19.4729 19.2628 19.5288 19.2383 19.5818 19.2151C19.6024 19.206 19.6227 19.1972 19.6421 19.1884C19.7229 19.1516 19.8082 19.114 19.8944 19.0811C18.1646 16.2298 15.062 14.4847 11.6427 14.4847C6.53545 14.4847 2.35151 18.4147 2.05495 23.3507H16.5664C16.601 23.0379 16.6662 22.7354 16.7546 22.4389L16.7556 22.4353L16.7557 22.4353C16.758 22.4284 16.7606 22.4227 16.7626 22.4186L16.7639 22.4143C16.808 22.2689 16.8614 22.1243 16.9173 21.9841L16.9185 21.9811L16.9185 21.9811L16.9323 21.9494L16.9457 21.9189C16.9458 21.9187 16.9458 21.9185 16.9459 21.9183C16.9994 21.7918 17.0588 21.669 17.1208 21.5475C17.1237 21.5418 17.1268 21.5353 17.1303 21.5284C17.142 21.5049 17.1566 21.4755 17.1725 21.4491C17.232 21.3417 17.2974 21.2348 17.3653 21.1288L17.3668 21.1265L17.3668 21.1265C17.3781 21.1098 17.3888 21.093 17.4005 21.0747L17.4008 21.0742C17.4121 21.0564 17.4243 21.0373 17.4375 21.0179C17.5071 20.9154 17.5826 20.8167 17.6601 20.7193L17.6615 20.7175C17.6735 20.7032 17.6851 20.6878 17.6984 20.6701L17.699 20.6693C17.7116 20.6525 17.726 20.6335 17.7414 20.615L17.8182 20.679L17.741 20.6154C17.8476 20.4861 17.9605 20.3631 18.0826 20.2431M19.1297 19.449L18.1531 20.3141M19.1297 19.449L19.1266 19.451C19.0998 19.4676 19.072 19.483 19.0417 19.4998L19.0408 19.5003C19.0115 19.5165 18.9797 19.5341 18.9484 19.5535L18.9474 19.5541C18.8399 19.6224 18.7361 19.6996 18.6357 19.7743L18.6342 19.7754L18.6341 19.7754L18.6327 19.7765C18.6138 19.7911 18.5944 19.8042 18.5708 19.8206C18.5485 19.8361 18.5235 19.8538 18.4986 19.8746M19.1297 19.449L18.5617 19.9522M18.0826 20.2431C18.0828 20.243 18.0829 20.2429 18.083 20.2427L18.1531 20.3141M18.0826 20.2431C18.0825 20.2433 18.0823 20.2434 18.0822 20.2436L18.1531 20.3141M18.0826 20.2431C18.2145 20.1107 18.3552 19.9878 18.4986 19.8746M18.1531 20.3141C18.2821 20.1844 18.4204 20.0638 18.5617 19.9522M18.4986 19.8746C18.4982 19.875 18.4978 19.8753 18.4973 19.8757L18.5617 19.9522M18.4986 19.8746C18.499 19.8743 18.4994 19.874 18.4997 19.8737L18.5617 19.9522M24.6144 26.9205L24.747 26.7903C26.3631 25.204 26.3631 22.6203 24.7501 21.0339C23.9402 20.2419 22.8781 19.8441 21.8154 19.8441C21.4242 19.8441 21.0358 19.8987 20.6589 20.0051C20.6424 20.0137 20.6267 20.017 20.6154 20.0183C20.4965 20.0528 20.3801 20.093 20.2635 20.1388L20.251 20.1437L20.2508 20.1428C20.2503 20.143 20.2494 20.1434 20.248 20.144C20.2466 20.1445 20.2452 20.1452 20.2436 20.146C20.2411 20.1471 20.2381 20.1486 20.2341 20.1505L20.2276 20.1537L20.2275 20.1535C20.1253 20.1948 20.0265 20.2389 19.928 20.2887L19.9269 20.2893L19.8551 20.3245C19.7459 20.3841 19.6417 20.4426 19.5381 20.5094C19.538 20.5095 19.5378 20.5096 19.5376 20.5097L19.5255 20.5181C19.5205 20.5216 19.5137 20.5264 19.5075 20.5305L19.5062 20.5313C19.4152 20.5889 19.3262 20.6558 19.2376 20.7247L19.2369 20.7253C19.2087 20.7468 19.1835 20.7661 19.1615 20.785L19.1587 20.7874L19.1587 20.7874C19.0631 20.8636 18.9709 20.9454 18.8849 21.0327L18.8837 21.0339C18.8803 21.0372 18.877 21.0408 18.8714 21.0472C18.8664 21.0528 18.8591 21.061 18.8505 21.0695M24.6144 26.9205C23.8489 27.6067 22.862 27.9832 21.8184 27.9832C20.7106 27.9832 19.6667 27.5589 18.8837 26.7903M24.6144 26.9205L24.5725 26.9617H24.7178L24.6144 26.9205ZM18.8505 21.0695C18.8503 21.0697 18.8501 21.0699 18.8499 21.0701L18.7799 20.9987L18.8511 21.0689C18.8509 21.0691 18.8507 21.0693 18.8505 21.0695ZM18.8505 21.0695C18.7623 21.1591 18.6788 21.247 18.6019 21.3399L18.6011 21.3409C18.5864 21.3582 18.5769 21.37 18.5676 21.3836L18.5645 21.3883L18.5644 21.3882C18.5509 21.4057 18.5376 21.423 18.5245 21.4402C18.4705 21.5105 18.4187 21.5779 18.3698 21.648M18.3698 21.648V21.62V21.617H18.2698L18.2743 21.62L18.3526 21.6732C18.3583 21.6647 18.364 21.6564 18.3698 21.648ZM18.3698 21.648V21.6505L18.3528 21.6758C17.2918 23.2528 17.4714 25.4009 18.8837 26.7903M18.8837 26.7903L18.8136 26.8617L18.8838 26.7904C18.8838 26.7904 18.8837 26.7904 18.8837 26.7903ZM25.5539 20.2398L25.5538 20.2397C24.3215 19.0301 22.6273 18.5505 21.0268 18.7843C19.1261 15.4341 15.5722 13.3649 11.6427 13.3649C5.721 13.3649 0.9 18.0947 0.9 23.9121V24.3705V24.4705H1H16.5664C16.6904 25.6075 17.1951 26.7129 18.08 27.5815C19.079 28.5622 20.407 29.1 21.8184 29.1C23.23 29.1 24.5579 28.5591 25.5538 27.5815C27.6154 25.5578 27.6153 22.2664 25.5539 20.2398ZM20.4875 21.817L20.4869 21.8165C20.2641 21.6014 19.9042 21.6006 19.6837 21.817C19.4595 22.0372 19.4595 22.3911 19.6837 22.6112L21.009 23.9121L19.6837 25.213C19.4595 25.4331 19.4595 25.787 19.6837 26.0072C19.7953 26.1167 19.9406 26.1715 20.0856 26.1715C20.2306 26.1715 20.3759 26.1167 20.4875 26.0072L21.8154 24.7037L23.1432 26.0072C23.2548 26.1167 23.4001 26.1715 23.5451 26.1715C23.6901 26.1715 23.8354 26.1167 23.947 26.0072C24.1713 25.787 24.1713 25.4331 23.947 25.213L22.6217 23.9121L23.9464 22.6118C23.9465 22.6117 23.9466 22.6115 23.9468 22.6114C24.1718 22.3938 24.1708 22.0367 23.947 21.817L23.9464 21.8165C23.7236 21.6014 23.3637 21.6006 23.1432 21.817L21.8154 23.1205L20.4875 21.817ZM11.6427 11.6618C14.661 11.6618 17.1225 9.25132 17.1225 6.28091C17.1225 3.31055 14.6641 0.9 11.6427 0.9C8.62118 0.9 6.16606 3.31371 6.16606 6.28393C6.16606 9.25433 8.62444 11.6618 11.6427 11.6618ZM11.6427 2.02288C14.0379 2.02288 15.9854 3.93719 15.9854 6.28393C15.9854 8.63067 14.0379 10.545 11.6427 10.545C9.24755 10.545 7.30013 8.63074 7.30006 6.28406C7.30306 3.93413 9.24758 2.02288 11.6427 2.02288Z" fill="black" stroke="black" stroke-width="0.2"/>
</svg>
