<svg width="25" height="28" viewBox="0 0 25 28" fill="none" xmlns="http://www.w3.org/2000/svg">
<path d="M3.05696 16.9049H2.30205L3.05696 16.9048V16.9048V16.9047V16.9045V16.9044V16.9042V16.9039V16.9036V16.9033V16.9029V16.9025V16.9021V16.9016V16.9011V16.9005V16.8999V16.8993V16.8986V16.8979V16.8971V16.8963V16.8955V16.8946V16.8937V16.8928V16.8918V16.8908V16.8898V16.8887V16.8876V16.8864V16.8852V16.884V16.8827V16.8814V16.88V16.8786V16.8772V16.8758V16.8743V16.8727V16.8712V16.8696V16.8679V16.8662V16.8645V16.8628V16.861V16.8592V16.8573V16.8554V16.8535V16.8515V16.8495V16.8475V16.8454V16.8433V16.8412V16.839V16.8368V16.8345V16.8323V16.8299V16.8276V16.8252V16.8228V16.8203V16.8178V16.8153V16.8127V16.8101V16.8075V16.8048V16.8021V16.7994V16.7966V16.7938V16.791V16.7881V16.7852V16.7822V16.7793V16.7763V16.7732V16.7701V16.767V16.7639V16.7607V16.7575V16.7542V16.751V16.7477V16.7443V16.7409V16.7375V16.7341V16.7306V16.7271V16.7235V16.72V16.7163V16.7127V16.709V16.7053V16.7016V16.6978V16.694V16.6902V16.6863V16.6824V16.6785V16.6745V16.6705V16.6665V16.6624V16.6583V16.6542V16.65V16.6458V16.6416V16.6374V16.6331V16.6288V16.6244V16.62V16.6156V16.6112V16.6067V16.6022V16.5977V16.5931V16.5885V16.5839V16.5792V16.5745V16.5698V16.5651V16.5603V16.5555V16.5506V16.5458V16.5409V16.5359V16.531V16.526V16.521V16.5159V16.5108V16.5057V16.5006V16.4954V16.4902V16.485V16.4797V16.4744V16.4691V16.4638V16.4584V16.453V16.4476V16.4421V16.4366V16.4311V16.4255V16.42V16.4143V16.4087V16.403V16.3974V16.3916V16.3859V16.3801V16.3743V16.3685V16.3626V16.3567V16.3508V16.3448V16.3389V16.3329V16.3268V16.3208V16.3147V16.3086V16.3024V16.2963V16.2901V16.2838V16.2776V16.2713V16.265V16.2587V16.2523V16.2459V16.2395V16.2331V16.2266V16.2201V16.2136V16.2071V16.2005V16.1939V16.1873V16.1806V16.1739V16.1672V16.1605V16.1537V16.1469V16.1401V16.1333V16.1264V16.1195V16.1126V16.1057V16.0987V16.0917V16.0847V16.0777V16.0706V16.0635V16.0564V16.0493V16.0421V16.0349V16.0277V16.0205V16.0132V16.0059V15.9986V15.9912V15.9839V15.9765V15.9691V15.9616V15.9542V15.9467V15.9392V15.9316V15.9241V15.9165V15.9089V15.9013V15.8936V15.8859V15.8782V15.8705V15.8628V15.855V15.8472V15.8394V15.8315V15.8237V15.8158V15.8078V15.7999V15.792V15.784V15.776V15.7679V15.7599V15.7518V15.7437V15.7356V15.7275V15.7193V15.7111V15.7029V15.6947V15.6864V15.6781V15.6698V15.6615V15.6532V15.6448V15.6364V15.628V15.6196V15.6112V15.6027V15.5942V15.5857V15.5771V15.5686V15.56V15.5514V15.5428V15.5341V15.5255V15.5168V15.5081V15.4994V15.4906V15.4818V15.4731V15.4643V15.4554V15.4466V15.4377V15.4288V15.4199V15.411V15.402V15.3931V15.3841V15.3751V15.366V15.357V15.3479V15.3388V15.3297V15.3206V15.3114V15.3023V15.2931V15.2839V15.2746V15.2654V15.2561V15.2468V15.2375V15.2282V15.2189V15.2095V15.2001V15.1907V15.1813V15.1719V15.1624V15.153V15.1435V15.134V15.1245V15.1149V15.1053V15.0958V15.0862V15.0766V15.0669V15.0573V15.0476V15.0379V15.0282V15.0185V15.0087V14.999V14.9892V14.9794V14.9696V14.9598V14.9499V14.9401V14.9302V14.9203V14.9104V14.9005V14.8905V14.8806V14.8706V14.8606V14.8506V14.8406V14.8305V14.8204V14.8104V14.8003V14.7902V14.78V14.7699V14.7597V14.7496V14.7394V14.7292V14.719V14.7087V14.6985V14.6882V14.6779V14.6676V14.6573V14.647V14.6366V14.6263V14.6159V14.6055V14.5951V14.5847V14.5743V14.5638V14.5534V14.5429V14.5324V14.5219V14.5114V14.5008V14.4903V14.4797V14.4691V14.4585V14.4479V14.4373V14.4267V14.416V14.4054V14.3947V14.384V14.3733V14.3626V14.3519V14.3411V14.3304V14.3196V14.3088V14.298V14.2872V14.2764V14.2655V14.2547V14.2438V14.233V14.2221V14.2112V14.2003V14.1893V14.1784V14.1674V14.1565V14.1455V14.1345V14.1235V14.1125V14.1015V14.0905V14.0794V14.0683V14.0573V14.0462V14.0351V14.024V14.0129V14.0017V13.9906V13.9795V13.9683V13.9571V13.9459V13.9347V13.9235V13.9123V13.9011V13.8898V13.8786V13.8673V13.8561V13.8448V13.8335V13.8222V13.8109V13.7995V13.7882V13.7769V13.7655V13.7541V13.7428V13.7314V13.72V13.7086V13.6972V13.6857V13.6743V13.6629V13.6514V13.6399V13.6285V13.617V13.6055V13.594V13.5825V13.571V13.5594V13.5479V13.5364V13.5248V13.5132V13.5017V13.4901V13.4785V13.4669V13.4553V13.4437V13.4321V13.4204V13.4088V13.3971V13.3855V13.3738V13.3621V13.3505V13.3388V13.3271V13.3154V13.3037V13.2919V13.2802V13.2685V13.2567V13.245V13.2332V13.2215V13.2097V13.1979V13.1861C3.05696 9.48738 5.87999 5.28439 10.532 5.28439H10.9892C15.6397 5.28439 18.4642 9.51612 18.4642 13.1861V13.1979V13.2097V13.2215V13.2332V13.245V13.2567V13.2685V13.2802V13.2919V13.3037V13.3154V13.3271V13.3388V13.3505V13.3621V13.3738V13.3855V13.3971V13.4088V13.4204V13.4321V13.4437V13.4553V13.4669V13.4785V13.4901V13.5017V13.5132V13.5248V13.5364V13.5479V13.5594V13.571V13.5825V13.594V13.6055V13.617V13.6285V13.6399V13.6514V13.6629V13.6743V13.6857V13.6972V13.7086V13.72V13.7314V13.7428V13.7541V13.7655V13.7769V13.7882V13.7995V13.8109V13.8222V13.8335V13.8448V13.8561V13.8673V13.8786V13.8898V13.9011V13.9123V13.9235V13.9347V13.9459V13.9571V13.9683V13.9795V13.9906V14.0017V14.0129V14.024V14.0351V14.0462V14.0573V14.0683V14.0794V14.0905V14.1015V14.1125V14.1235V14.1345V14.1455V14.1565V14.1674V14.1784V14.1893V14.2003V14.2112V14.2221V14.233V14.2438V14.2547V14.2655V14.2764V14.2872V14.298V14.3088V14.3196V14.3304V14.3411V14.3519V14.3626V14.3733V14.384V14.3947V14.4054V14.416V14.4267V14.4373V14.4479V14.4585V14.4691V14.4797V14.4903V14.5008V14.5114V14.5219V14.5324V14.5429V14.5534V14.5638V14.5743V14.5847V14.5951V14.6055V14.6159V14.6263V14.6366V14.647V14.6573V14.6676V14.6779V14.6882V14.6985V14.7087V14.719V14.7292V14.7394V14.7496V14.7597V14.7699V14.78V14.7902V14.8003V14.8104V14.8204V14.8305V14.8406V14.8506V14.8606V14.8706V14.8806V14.8905V14.9005V14.9104V14.9203V14.9302V14.9401V14.9499V14.9598V14.9696V14.9794V14.9892V14.999V15.0087V15.0185V15.0282V15.0379V15.0476V15.0573V15.0669V15.0766V15.0862V15.0958V15.1053V15.1149V15.1245V15.134V15.1435V15.153V15.1624V15.1719V15.1813V15.1907V15.2001V15.2095V15.2189V15.2282V15.2375V15.2468V15.2561V15.2654V15.2746V15.2839V15.2931V15.3023V15.3114V15.3206V15.3297V15.3388V15.3479V15.357V15.366V15.3751V15.3841V15.3931V15.402V15.411V15.4199V15.4288V15.4377V15.4466V15.4554V15.4643V15.4731V15.4818V15.4906V15.4994V15.5081V15.5168V15.5255V15.5341V15.5428V15.5514V15.56V15.5686V15.5771V15.5857V15.5942V15.6027V15.6112V15.6196V15.628V15.6364V15.6448V15.6532V15.6615V15.6698V15.6781V15.6864V15.6947V15.7029V15.7111V15.7193V15.7275V15.7356V15.7437V15.7518V15.7599V15.7679V15.776V15.784V15.792V15.7999V15.8078V15.8158V15.8237V15.8315V15.8394V15.8472V15.855V15.8628V15.8705V15.8782V15.8859V15.8936V15.9013V15.9089V15.9165V15.9241V15.9316V15.9392V15.9467V15.9542V15.9616V15.9691V15.9765V15.9839V15.9912V15.9986V16.0059V16.0132V16.0205V16.0277V16.0349V16.0421V16.0493V16.0564V16.0635V16.0706V16.0777V16.0847V16.0917V16.0987V16.1057V16.1126V16.1195V16.1264V16.1333V16.1401V16.1469V16.1537V16.1605V16.1672V16.1739V16.1806V16.1873V16.1939V16.2005V16.2071V16.2136V16.2201V16.2266V16.2331V16.2395V16.2459V16.2523V16.2587V16.265V16.2713V16.2776V16.2838V16.2901V16.2963V16.3024V16.3086V16.3147V16.3208V16.3268V16.3329V16.3389V16.3448V16.3508V16.3567V16.3626V16.3685V16.3743V16.3801V16.3859V16.3916V16.3974V16.403V16.4087V16.4143V16.42V16.4255V16.4311V16.4366V16.4421V16.4476V16.453V16.4584V16.4638V16.4691V16.4744V16.4797V16.485V16.4902V16.4954V16.5006V16.5057V16.5108V16.5159V16.521V16.526V16.531V16.5359V16.5409V16.5458V16.5506V16.5555V16.5603V16.5651V16.5698V16.5745V16.5792V16.5839V16.5885V16.5931V16.5977V16.6022V16.6067V16.6112V16.6156V16.62V16.6244V16.6288V16.6331V16.6374V16.6416V16.6458V16.65V16.6542V16.6583V16.6624V16.6665V16.6705V16.6745V16.6785V16.6824V16.6863V16.6902V16.694V16.6978V16.7016V16.7053V16.709V16.7127V16.7163V16.72V16.7235V16.7271V16.7306V16.7341V16.7375V16.7409V16.7443V16.7477V16.751V16.7542V16.7575V16.7607V16.7639V16.767V16.7701V16.7732V16.7763V16.7793V16.7822V16.7852V16.7881V16.791V16.7938V16.7966V16.7994V16.8021V16.8048V16.8075V16.8101V16.8127V16.8153V16.8178V16.8203V16.8228V16.8252V16.8276V16.8299V16.8323V16.8345V16.8368V16.839V16.8412V16.8433V16.8454V16.8475V16.8495V16.8515V16.8535V16.8554V16.8573V16.8592V16.861V16.8628V16.8645V16.8662V16.8679V16.8696V16.8712V16.8727V16.8743V16.8758V16.8772V16.8786V16.88V16.8814V16.8827V16.884V16.8852V16.8864V16.8876V16.8887V16.8898V16.8908V16.8918V16.8928V16.8937V16.8946V16.8955V16.8963V16.8971V16.8979V16.8986V16.8993V16.8999V16.9005V16.9011V16.9016V16.9021V16.9025V16.9029V16.9033V16.9036V16.9039V16.9042V16.9044V16.9045V16.9047V16.9048V16.9049C18.4642 17.7917 18.8305 18.5984 19.4648 19.193L19.4735 19.2012L19.4824 19.209L20.2394 19.8752C20.9232 20.5008 20.9389 21.5549 20.3008 22.193C19.9821 22.5117 19.5937 22.6729 19.1582 22.6729H12.3608H9.16032H2.36301C1.92747 22.6729 1.53909 22.5117 1.22034 22.193C0.582241 21.5549 0.597977 20.5009 1.28171 19.8752L2.03713 19.2104C2.03742 19.2102 2.03771 19.2099 2.03801 19.2096C2.70118 18.6289 3.05696 17.776 3.05696 16.9049Z" fill="white" stroke="#0D0D0D" stroke-width="1.50982"/>
<path d="M13.0719 25.5543C12.7539 26.5357 11.8325 27.2451 10.745 27.2451C9.65744 27.2451 8.73603 26.5357 8.41801 25.5543H13.0719Z" fill="#0D0D0D" stroke="#0D0D0D" stroke-width="1.50982"/>
<circle cx="18.4953" cy="5.66183" r="5.66183" fill="#2355FF"/>
</svg>
