<svg width="23" height="23" viewBox="0 0 23 23" fill="none" xmlns="http://www.w3.org/2000/svg">
<path d="M21.5123 7.29097L20.3623 15.5135C20.3336 15.9479 20.2111 16.371 20.0031 16.7535C19.7952 17.136 19.5067 17.4689 19.1577 17.7291C19.1138 17.7596 19.0624 17.7777 19.0091 17.7815C18.9558 17.7853 18.9024 17.7747 18.8546 17.7508C18.8067 17.7269 18.7662 17.6906 18.7373 17.6456C18.7083 17.6006 18.692 17.5487 18.69 17.4953V9.26227C18.7397 8.72545 18.6704 8.1843 18.4872 7.67729C18.3039 7.17028 18.0113 6.70987 17.6299 6.3288C17.2486 5.94774 16.788 5.65538 16.2808 5.47252C15.7737 5.28966 15.2325 5.22079 14.6957 5.27081H5.67586C5.38836 5.27081 5.38165 5.01206 5.40177 4.89706C5.48268 4.11748 5.86511 3.40041 6.46744 2.89893C6.80751 2.67099 7.18979 2.51345 7.59172 2.4356C7.99365 2.35774 8.4071 2.36116 8.80769 2.44564L18.9286 3.86397C19.3383 3.89377 19.7378 4.00528 20.1037 4.19192C20.4696 4.37857 20.7944 4.63657 21.059 4.95072C21.2874 5.29059 21.4452 5.67286 21.5231 6.07486C21.6009 6.47687 21.5973 6.89041 21.5123 7.29097ZM17.2496 9.26227V17.5691C17.299 17.9161 17.267 18.2698 17.1562 18.6023C17.0453 18.9348 16.8587 19.2369 16.6109 19.4848C16.3632 19.7327 16.0612 19.9196 15.7288 20.0307C15.3964 20.1418 15.0427 20.1741 14.6957 20.125H4.47219C4.12499 20.1746 3.77099 20.1428 3.43825 20.0319C3.1055 19.921 2.80315 19.7342 2.55514 19.4861C2.30713 19.2381 2.12029 18.9358 2.0094 18.603C1.89852 18.2703 1.86665 17.9163 1.91631 17.5691V9.26227C1.86698 8.91521 1.8991 8.56144 2.01013 8.22894C2.12116 7.89644 2.30805 7.59435 2.55602 7.34657C2.80398 7.09879 3.10621 6.91213 3.43879 6.80135C3.77137 6.69057 4.12517 6.65871 4.47219 6.70831H14.6957C15.0425 6.65925 15.396 6.69149 15.7282 6.80249C16.0605 6.91349 16.3624 7.10021 16.6101 7.3479C16.8577 7.59559 17.0445 7.89747 17.1555 8.22971C17.2665 8.56194 17.2987 8.91543 17.2496 9.26227ZM12.6976 13.4166C12.6976 13.226 12.6218 13.0432 12.487 12.9084C12.3523 12.7736 12.1694 12.6979 11.9788 12.6979H10.3017V11.0208C10.3017 10.8302 10.226 10.6474 10.0912 10.5126C9.95642 10.3778 9.77361 10.3021 9.58298 10.3021C9.39236 10.3021 9.20954 10.3778 9.07475 10.5126C8.93996 10.6474 8.86423 10.8302 8.86423 11.0208V12.6979H7.18715C6.99652 12.6979 6.81371 12.7736 6.67891 12.9084C6.54412 13.0432 6.4684 13.226 6.4684 13.4166C6.4684 13.6073 6.54412 13.7901 6.67891 13.9249C6.81371 14.0597 6.99652 14.1354 7.18715 14.1354H8.86423V15.8125C8.86423 16.0031 8.93996 16.1859 9.07475 16.3207C9.20954 16.4555 9.39236 16.5312 9.58298 16.5312C9.77361 16.5312 9.95642 16.4555 10.0912 16.3207C10.226 16.1859 10.3017 16.0031 10.3017 15.8125V14.1354H11.9788C12.1694 14.1354 12.3523 14.0597 12.487 13.9249C12.6218 13.7901 12.6976 13.6073 12.6976 13.4166Z" fill="#2355FF"/>
</svg>
