<svg width="33" height="41" viewBox="0 0 33 41" fill="none" xmlns="http://www.w3.org/2000/svg">
<path d="M3.75 4.09994C3.75 3.90317 3.91216 3.73328 4.125 3.73328H13.75C13.9629 3.73328 14.125 3.90315 14.125 4.09994V13.6666C14.125 13.8634 13.9629 14.0333 13.75 14.0333H4.125C3.91215 14.0333 3.75 13.8634 3.75 13.6666V4.09994Z" stroke="#B9B9B9" stroke-width="2"/>
<path d="M18.875 8.88328C18.875 6.04473 21.1918 3.73328 24.0625 3.73328C26.9332 3.73328 29.25 6.04473 29.25 8.88328C29.25 11.7218 26.9332 14.0333 24.0625 14.0333H19.25C19.0371 14.0333 18.875 13.8634 18.875 13.6666V8.88328Z" stroke="#B9B9B9" stroke-width="2"/>
<path d="M3.75 19.1334C3.75 18.9366 3.91215 18.7667 4.125 18.7667H13.75C13.9629 18.7667 14.125 18.9366 14.125 19.1334V28.7001C14.125 28.8969 13.9629 29.0667 13.75 29.0667H4.125C3.91215 29.0667 3.75 28.8968 3.75 28.7001V19.1334Z" stroke="#B9B9B9" stroke-width="2"/>
<path d="M18.875 19.1334C18.875 18.9366 19.0371 18.7667 19.25 18.7667H28.875C29.0879 18.7667 29.25 18.9366 29.25 19.1334V28.7001C29.25 28.8969 29.0879 29.0667 28.875 29.0667H19.25C19.0371 29.0667 18.875 28.8969 18.875 28.7001V19.1334Z" stroke="#B9B9B9" stroke-width="2"/>
</svg>
