<svg width="37" height="36" viewBox="0 0 37 36" fill="none" xmlns="http://www.w3.org/2000/svg">
<path d="M5.11742 22.5494C4.69507 20.0147 5.00856 17.3362 6.03612 14.98C6.95919 12.8589 8.4178 10.9731 10.2639 9.5707C11.3133 8.77368 12.4801 8.12475 13.7123 7.66309C13.9344 7.58034 14.0824 7.36693 14.0171 7.12739C13.9605 6.91398 13.7036 6.73977 13.4816 6.82252C11.1478 7.69793 9.05349 9.15259 7.4512 11.0646C5.84455 12.9852 4.73426 15.3066 4.29885 17.776C4.00713 19.4354 4.00277 21.1209 4.28144 22.7846C4.32062 23.0154 4.60799 23.1461 4.81699 23.0895C5.06081 23.0154 5.1566 22.7846 5.11742 22.5494Z" fill="#2355FF" stroke="#2355FF"/>
<path d="M27.0524 30.7812C25.1975 32.3099 22.9465 33.316 20.5735 33.6992C18.1222 34.0912 15.5663 33.7776 13.2717 32.8325C12.0482 32.3273 10.8901 31.6261 9.86686 30.7812C9.68399 30.6331 9.4271 30.6026 9.25294 30.7812C9.10054 30.9336 9.07006 31.2472 9.25294 31.3953C11.2427 33.0372 13.6375 34.1522 16.189 34.5485C18.8101 34.9536 21.5271 34.6574 23.9784 33.6296C25.3151 33.0677 26.5516 32.3186 27.6706 31.3953C27.8535 31.2472 27.8274 30.9336 27.6706 30.7812C27.4878 30.6026 27.2352 30.6331 27.0524 30.7812Z" fill="#2355FF" stroke="#2355FF"/>
<path d="M23.2121 7.66309C25.3848 8.47752 27.3223 9.8625 28.8201 11.6351C30.331 13.4251 31.3498 15.6115 31.7722 17.9154C32.0508 19.4398 32.0595 21.0251 31.807 22.5538C31.7678 22.7846 31.868 23.0242 32.1118 23.0895C32.3208 23.1461 32.6081 23.0198 32.6473 22.7846C33.1089 20.0147 32.778 17.1794 31.6633 14.5967C30.6837 12.3189 29.0944 10.3372 27.122 8.83901C26.003 7.98538 24.7578 7.31902 23.4385 6.82252C23.2164 6.73977 22.9595 6.91398 22.9029 7.12739C22.8376 7.37128 22.99 7.58034 23.2121 7.66309Z" fill="#2355FF" stroke="#2355FF"/>
<path d="M22.9684 6.374C22.951 8.30339 21.7014 10.0716 19.8509 10.664C18.057 11.2388 16.0411 10.6248 14.8916 9.12654C13.6942 7.5717 13.6681 5.381 14.7784 3.77825C15.8103 2.2931 17.7218 1.57013 19.4808 1.98388C21.5098 2.4586 22.9553 4.29218 22.9684 6.374ZM22.9684 6.374C22.9728 6.93583 23.8436 6.93583 23.8392 6.374C23.8262 4.17023 22.472 2.19729 20.4343 1.37414C18.4053 0.550991 15.9758 1.12153 14.5041 2.73734C12.9584 4.4359 12.6493 6.99245 13.7726 9.00023C14.8742 10.9775 17.1296 12.0228 19.3502 11.6744C21.5185 11.3347 23.3298 9.57078 23.7391 7.41927C23.8044 7.0752 23.8392 6.72242 23.8436 6.374C23.8436 5.81217 22.9728 5.81217 22.9684 6.374Z" stroke="#2355FF"/>
<path d="M34.4496 29.5659C33.5309 31.1338 31.7283 32.0397 29.9213 31.7828C27.9664 31.5084 26.4207 29.9492 26.0941 28.0155C25.7763 26.1122 26.7995 24.1828 28.4932 23.303C30.2 22.4233 32.3422 22.7586 33.7094 24.1044C35.1636 25.5373 35.4554 27.7977 34.4496 29.5659ZM34.4496 29.5659C34.1709 30.0537 34.9242 30.4936 35.2028 30.0058C36.2565 28.1505 36.1346 25.7856 34.8414 24.0783C33.4568 22.2534 30.9924 21.4738 28.8198 22.2229C26.6471 22.972 25.1406 25.08 25.1754 27.3883C25.2146 29.7401 26.8299 31.8481 29.0941 32.4883C31.1274 33.0632 33.4089 32.349 34.7282 30.6896C34.9024 30.4718 35.0635 30.241 35.2028 30.0015C35.4858 29.518 34.7326 29.0825 34.4496 29.5659Z" stroke="#2355FF"/>
<path d="M9.25283 30.7809C7.79857 31.9917 5.69991 32.1485 4.0802 31.1903C2.53015 30.2757 1.65063 28.4509 1.91187 26.6783C2.19053 24.7837 3.64479 23.2594 5.52139 22.8848C7.33704 22.519 9.25283 23.377 10.2151 24.9492C11.3776 26.8612 10.9422 29.3393 9.25283 30.7809ZM9.25283 30.7809C9.07431 30.9334 9.09609 31.2383 9.25283 31.395C9.43135 31.5736 9.68824 31.5475 9.86676 31.395M9.25283 30.7809C9.4357 30.6329 9.69259 30.6024 9.86676 30.7809C10.0235 30.9334 10.0496 31.2426 9.86676 31.395M9.86676 31.395C11.5997 29.9142 12.2223 27.3882 11.3471 25.2802C10.4807 23.2028 8.38202 21.8265 6.1179 21.9397C3.83637 22.053 1.8335 23.6383 1.20216 25.8333C0.605651 27.9152 1.35891 30.2235 3.07005 31.5518C4.76379 32.8671 7.1324 33.05 9.009 31.9961C9.31379 31.8262 9.5968 31.6172 9.86676 31.395Z" stroke="#2355FF"/>
<circle cx="30.5" cy="27.5" r="4.5" fill="#2355FF"/>
<circle cx="18.5" cy="6.5" r="4.5" fill="#2355FF"/>
<circle cx="6.5" cy="27.5" r="4.5" fill="#2355FF"/>
</svg>
