<svg width="32" height="33" viewBox="0 0 32 33" fill="none" xmlns="http://www.w3.org/2000/svg">
<path fill-rule="evenodd" clip-rule="evenodd" d="M9.00149 32.0417C10.8659 32.0417 12.3771 30.5305 12.3771 28.6661V23.0469C12.3838 22.2807 12.7911 21.448 13.4021 20.7943C14.0074 20.1462 14.8322 19.6646 15.7526 19.6646C16.6786 19.6646 17.5068 20.1428 18.1132 20.7909C18.7231 21.4413 19.1282 22.2717 19.1282 23.039L19.1079 28.6537C19.1045 29.5516 19.459 30.4124 20.0913 31.0481C20.7248 31.6839 21.5856 32.0417 22.4835 32.0417C24.1645 32.0417 26.4498 32.0417 28.1297 32.0417C29.9941 32.0417 31.5052 30.5305 31.5052 28.6661C31.5052 24.5502 31.5052 15.9537 31.5052 12.8966C31.5052 11.8479 31.018 10.86 30.1876 10.2209L17.8106 0.699585C16.5976 -0.233195 14.9076 -0.233195 13.6947 0.699585L1.3176 10.2209C0.487212 10.86 0 11.8479 0 12.8966V28.6661C0 29.5618 0.355556 30.4203 0.989037 31.0526C1.62139 31.6861 2.47991 32.0417 3.37556 32.0417H9.00149Z" fill="#2355FF"/>
</svg>
