<svg width="32" height="33" viewBox="0 0 32 33" fill="none" xmlns="http://www.w3.org/2000/svg">
<path d="M11.3771 23.0381H11.3771C11.3867 21.949 11.9464 20.8874 12.6715 20.1115C13.4025 19.3289 14.4743 18.6646 15.7526 18.6646C17.0326 18.6646 18.108 19.3218 18.8434 20.1077C19.5685 20.8812 20.1282 21.9439 20.1282 23.039V23.0427L20.1079 28.6574L20.1079 28.6575C20.1055 29.2889 20.3546 29.8945 20.7997 30.3423L11.3771 23.0381ZM11.3771 23.0381V23.0469M11.3771 23.0381V23.0469M11.3771 23.0469V28.6661C11.3771 29.9783 10.3136 31.0417 9.00149 31.0417H3.37556C2.74497 31.0417 2.14121 30.7914 1.69677 30.3462L1.69551 30.3449M11.3771 23.0469L1.69551 30.3449M1.69551 30.3449C1.25029 29.9005 1 29.2967 1 28.6661V12.8966C1 12.1589 1.34264 11.4636 1.92733 11.0135C1.92739 11.0135 1.92746 11.0134 1.92752 11.0134L14.3043 1.49229L1.69551 30.3449ZM22.4835 31.0417C21.8519 31.0417 21.2462 30.7901 20.8003 30.3429L14.3044 1.49219C15.1579 0.835935 16.3474 0.835936 17.2009 1.49219C17.2009 1.49223 17.2009 1.49226 17.201 1.49229L29.5777 11.0134C30.1625 11.4635 30.5052 12.1588 30.5052 12.8966V12.9146V12.9327V12.9509V12.9693V12.9877V13.0063V13.0251V13.0439V13.0629V13.082V13.1012V13.1206V13.14V13.1596V13.1793V13.1991V13.2191V13.2391V13.2593V13.2796V13.3V13.3206V13.3412V13.362V13.3829V13.4039V13.425V13.4462V13.4676V13.489V13.5106V13.5323V13.5541V13.576V13.598V13.6201V13.6424V13.6647V13.6872V13.7098V13.7325V13.7552V13.7781V13.8011V13.8243V13.8475V13.8708V13.8942V13.9178V13.9414V13.9651V13.989V14.0129V14.037V14.0612V14.0854V14.1098V14.1342V14.1588V14.1835V14.2082V14.2331V14.2581V14.2831V14.3083V14.3335V14.3589V14.3843V14.4099V14.4355V14.4613V14.4871V14.513V14.539V14.5652V14.5914V14.6177V14.6441V14.6705V14.6971V14.7238V14.7505V14.7774V14.8043V14.8314V14.8585V14.8857V14.913V14.9404V14.9678V14.9954V15.023V15.0507V15.0785V15.1064V15.1344V15.1625V15.1906V15.2189V15.2472V15.2756V15.304V15.3326V15.3612V15.3899V15.4187V15.4476V15.4766V15.5056V15.5347V15.5639V15.5932V15.6225V15.6519V15.6814V15.711V15.7406V15.7703V15.8001V15.83V15.8599V15.8899V15.92V15.9502V15.9804V16.0107V16.0411V16.0715V16.102V16.1326V16.1632V16.194V16.2247V16.2556V16.2865V16.3175V16.3485V16.3796V16.4108V16.442V16.4734V16.5047V16.5362V16.5676V16.5992V16.6308V16.6625V16.6942V16.726V16.7579V16.7898V16.8218V16.8539V16.8859V16.9181V16.9503V16.9826V17.0149V17.0473V17.0797V17.1122V17.1448V17.1774V17.21V17.2427V17.2755V17.3083V17.3412V17.3741V17.4071V17.4401V17.4732V17.5063V17.5394V17.5727V17.6059V17.6392V17.6726V17.706V17.7395V17.773V17.8065V17.8401V17.8737V17.9074V17.9411V17.9749V18.0087V18.0426V18.0765V18.1104V18.1444V18.1784V18.2125V18.2466V18.2807V18.3149V18.3491V18.3834V18.4176V18.452V18.4863V18.5207V18.5552V18.5897V18.6242V18.6587V18.6933V18.7279V18.7625V18.7972V18.8319V18.8667V18.9014V18.9363V18.9711V19.006V19.0408V19.0758V19.1107V19.1457V19.1807V19.2157V19.2508V19.2859V19.321V19.3561V19.3913V19.4265V19.4617V19.497V19.5322V19.5675V19.6028V19.6381V19.6735V19.7089V19.7442V19.7797V19.8151V19.8505V19.886V19.9215V19.957V19.9925V20.0281V20.0636V20.0992V20.1348V20.1704V20.206V20.2416V20.2773V20.3129V20.3486V20.3843V20.42V20.4557V20.4914V20.5272V20.5629V20.5987V20.6344V20.6702V20.706V20.7418V20.7776V20.8134V20.8492V20.885V20.9208V20.9566V20.9925V21.0283V21.0641V21.1V21.1358V21.1717V21.2075V21.2434V21.2792V21.3151V21.3509V21.3868V21.4227V21.4585V21.4944V21.5302V21.5661V21.6019V21.6378V21.6736V21.7094V21.7453V21.7811V21.8169V21.8527V21.8885V21.9243V21.9601V21.9959V22.0317V22.0675V22.1032V22.139V22.1747V22.2105V22.2462V22.2819V22.3176V22.3533V22.389V22.4246V22.4603V22.4959V22.5315V22.5671V22.6027V22.6383V22.6739V22.7094V22.7449V22.7804V22.8159V22.8514V22.8869V22.9223V22.9577V22.9931V23.0285V23.0638V23.0991V23.1345V23.1697V23.205V23.2402V23.2755V23.3107V23.3458V23.381V23.4161V23.4512V23.4862V23.5213V23.5563V23.5913V23.6262V23.6611V23.696V23.7309V23.7657V23.8006V23.8353V23.8701V23.9048V23.9395V23.9741V24.0087V24.0433V24.0779V24.1124V24.1469V24.1813V24.2157V24.2501V24.2844V24.3187V24.353V24.3872V24.4214V24.4555V24.4896V24.5237V24.5577V24.5917V24.6256V24.6595V24.6934V24.7272V24.761V24.7947V24.8284V24.862V24.8956V24.9292V24.9627V24.9961V25.0296V25.0629V25.0962V25.1295V25.1627V25.1959V25.229V25.2621V25.2951V25.3281V25.361V25.3939V25.4267V25.4595V25.4922V25.5249V25.5575V25.59V25.6225V25.655V25.6873V25.7197V25.752V25.7842V25.8163V25.8484V25.8805V25.9125V25.9444V25.9763V26.0081V26.0398V26.0715V26.1031V26.1347V26.1662V26.1976V26.229V26.2603V26.2916V26.3228V26.3539V26.3849V26.4159V26.4468V26.4777V26.5085V26.5392V26.5698V26.6004V26.6309V26.6614V26.6918V26.7221V26.7523V26.7825V26.8125V26.8426V26.8725V26.9024V26.9322V26.9619V26.9916V27.0211V27.0506V27.0801V27.1094V27.1387V27.1679V27.197V27.226V27.255V27.2839V27.3127V27.3414V27.3701V27.3986V27.4271V27.4555V27.4838V27.5121V27.5402V27.5683V27.5963V27.6242V27.652V27.6797V27.7074V27.7349V27.7624V27.7898V27.8171V27.8443V27.8714V27.8985V27.9254V27.9523V27.979V28.0057V28.0323V28.0588V28.0852V28.1115V28.1377V28.1639V28.1899V28.2158V28.2417V28.2674V28.2931V28.3186V28.3441V28.3695V28.3947V28.4199V28.445V28.4699V28.4948V28.5196V28.5443V28.5688V28.5933V28.6177V28.6419V28.6661C30.5052 29.9783 29.4418 31.0417 28.1297 31.0417H28.1198H28.11H28.1001H28.0902H28.0803H28.0704H28.0604H28.0505H28.0405H28.0306H28.0206H28.0106H28.0006H27.9905H27.9805H27.9704H27.9604H27.9503H27.9402H27.9301H27.92H27.9099H27.8997H27.8896H27.8794H27.8692H27.859H27.8488H27.8386H27.8284H27.8181H27.8079H27.7976H27.7873H27.7771H27.7668H27.7564H27.7461H27.7358H27.7254H27.7151H27.7047H27.6943H27.6839H27.6735H27.6631H27.6527H27.6422H27.6318H27.6213H27.6108H27.6004H27.5899H27.5794H27.5688H27.5583H27.5478H27.5372H27.5267H27.5161H27.5055H27.4949H27.4843H27.4737H27.4631H27.4524H27.4418H27.4311H27.4205H27.4098H27.3991H27.3884H27.3777H27.367H27.3563H27.3455H27.3348H27.324H27.3133H27.3025H27.2917H27.2809H27.2701H27.2593H27.2485H27.2376H27.2268H27.216H27.2051H27.1942H27.1834H27.1725H27.1616H27.1507H27.1398H27.1288H27.1179H27.107H27.096H27.0851H27.0741H27.0631H27.0522H27.0412H27.0302H27.0192H27.0082H26.9972H26.9861H26.9751H26.964H26.953H26.9419H26.9309H26.9198H26.9087H26.8976H26.8865H26.8754H26.8643H26.8532H26.8421H26.8309H26.8198H26.8086H26.7975H26.7863H26.7751H26.764H26.7528H26.7416H26.7304H26.7192H26.708H26.6968H26.6855H26.6743H26.6631H26.6518H26.6406H26.6293H26.618H26.6068H26.5955H26.5842H26.5729H26.5616H26.5503H26.539H26.5277H26.5164H26.5051H26.4938H26.4824H26.4711H26.4597H26.4484H26.437H26.4257H26.4143H26.403H26.3916H26.3802H26.3688H26.3574H26.346H26.3346H26.3232H26.3118H26.3004H26.289H26.2775H26.2661H26.2547H26.2432H26.2318H26.2204H26.2089H26.1975H26.186H26.1745H26.1631H26.1516H26.1401H26.1286H26.1172H26.1057H26.0942H26.0827H26.0712H26.0597H26.0482H26.0367H26.0252H26.0136H26.0021H25.9906H25.9791H25.9675H25.956H25.9445H25.9329H25.9214H25.9099H25.8983H25.8868H25.8752H25.8637H25.8521H25.8405H25.829H25.8174H25.8059H25.7943H25.7827H25.7711H25.7596H25.748H25.7364H25.7248H25.7132H25.7017H25.6901H25.6785H25.6669H25.6553H25.6437H25.6321H25.6205H25.6089H25.5973H25.5857H25.5741H25.5625H25.5509H25.5393H25.5277H25.5161H25.5045H25.4928H25.4812H25.4696H25.458H25.4464H25.4348H25.4232H25.4116H25.3999H25.3883H25.3767H25.3651H25.3535H25.3418H25.3302H25.3186H25.307H25.2954H25.2838H25.2721H25.2605H25.2489H25.2373H25.2257H25.2141H25.2024H25.1908H25.1792H25.1676H25.156H25.1444H25.1327H25.1211H25.1095H25.0979H25.0863H25.0747H25.0631H25.0515H25.0399H25.0283H25.0167H25.0051H24.9935H24.9819H24.9703H24.9587H24.9471H24.9355H24.9239H24.9123H24.9007H24.8891H24.8776H24.866H24.8544H24.8428H24.8313H24.8197H24.8081H24.7965H24.785H24.7734H24.7619H24.7503H24.7387H24.7272H24.7156H24.7041H24.6925H24.681H24.6695H24.6579H24.6464H24.6349H24.6233H24.6118H24.6003H24.5888H24.5773H24.5658H24.5542H24.5427H24.5312H24.5197H24.5083H24.4968H24.4853H24.4738H24.4623H24.4509H24.4394H24.4279H24.4165H24.405H24.3935H24.3821H24.3707H24.3592H24.3478H24.3363H24.3249H24.3135H24.3021H24.2907H24.2793H24.2679H24.2565H24.2451H24.2337H24.2223H24.2109H24.1995H24.1882H24.1768H24.1655H24.1541H24.1428H24.1314H24.1201H24.1088H24.0974H24.0861H24.0748H24.0635H24.0522H24.0409H24.0296H24.0183H24.007H23.9958H23.9845H23.9732H23.962H23.9507H23.9395H23.9283H23.917H23.9058H23.8946H23.8834H23.8722H23.861H23.8498H23.8386H23.8275H23.8163H23.8051H23.794H23.7828H23.7717H23.7606H23.7494H23.7383H23.7272H23.7161H23.705H23.6939H23.6829H23.6718H23.6607H23.6497H23.6386H23.6276H23.6166H23.6055H23.5945H23.5835H23.5725H23.5615H23.5505H23.5396H23.5286H23.5176H23.5067H23.4957H23.4848H23.4739H23.463H23.4521H23.4412H23.4303H23.4194H23.4085H23.3977H23.3868H23.376H23.3651H23.3543H23.3435H23.3327H23.3219H23.3111H23.3003H23.2896H23.2788H23.268H23.2573H23.2466H23.2359H23.2251H23.2144H23.2038H23.1931H23.1824H23.1717H23.1611H23.1504H23.1398H23.1292H23.1186H23.108H23.0974H23.0868H23.0763H23.0657H23.0552H23.0446H23.0341H23.0236H23.0131H23.0026H22.9921H22.9817H22.9712H22.9608H22.9503H22.9399H22.9295H22.9191H22.9087H22.8983H22.888H22.8776H22.8673H22.8569H22.8466H22.8363H22.826H22.8157H22.8055H22.7952H22.7849H22.7747H22.7645H22.7543H22.7441H22.7339H22.7237H22.7136H22.7034H22.6933H22.6832H22.6731H22.663H22.6529H22.6428H22.6327H22.6227H22.6127H22.6027H22.5926H22.5827H22.5727H22.5627H22.5528H22.5428H22.5329H22.523H22.5131H22.5032H22.4933H22.4835Z" stroke="#B9B9B9" stroke-width="2"/>
</svg>
