<svg width="29" height="32" viewBox="0 0 29 32" fill="none" xmlns="http://www.w3.org/2000/svg">
<path d="M3.3577 21.6242C4.59008 19.8162 6.29551 18.3987 8.27612 17.5265C10.0437 18.7371 12.1353 19.387 14.2812 19.383C16.4271 19.387 18.5186 18.7371 20.2862 17.5265C22.2668 18.3987 23.9723 19.8162 25.2046 21.6241C26.5382 23.5806 27.2546 25.9017 27.2575 28.2806C27.2557 28.7689 27.063 29.2343 26.7252 29.5761C26.3877 29.9176 25.9329 30.108 25.4608 30.1098H3.10148C2.62929 30.108 2.17452 29.9176 1.83701 29.5761C1.4992 29.2343 1.30656 28.7688 1.30469 28.2806C1.30776 25.9016 2.02411 23.5806 3.3577 21.6242Z" stroke="#B9B9B9" stroke-width="2"/>
<path d="M21.6672 8.48451C21.6672 12.6292 18.3495 15.969 14.2814 15.969C10.2133 15.969 6.89551 12.6292 6.89551 8.48451C6.89551 4.33987 10.2133 1 14.2814 1C18.3495 1 21.6672 4.33987 21.6672 8.48451Z" stroke="#B9B9B9" stroke-width="2"/>
</svg>
