<svg width="29" height="32" viewBox="0 0 29 32" fill="none" xmlns="http://www.w3.org/2000/svg">
<path d="M14.2811 18.383C12.1613 18.3874 10.0988 17.6868 8.41109 16.3892C6.02905 17.3085 3.97882 18.9375 2.53141 21.0609C1.084 23.1843 0.307544 25.7022 0.304688 28.2816C0.306837 29.031 0.60203 29.7491 1.12578 30.279C1.64953 30.8089 2.35928 31.1076 3.09997 31.1098H25.4623C26.203 31.1076 26.9127 30.8089 27.4364 30.279C27.9602 29.7491 28.2554 29.031 28.2575 28.2816C28.2548 25.7022 27.4783 23.1843 26.0309 21.0609C24.5835 18.9374 22.5333 17.3084 20.1512 16.3892C18.4634 17.6869 16.4009 18.3874 14.2811 18.383Z" fill="#2355FF"/>
<path d="M14.2811 18.383C12.1613 18.3874 10.0988 17.6868 8.41109 16.3892C6.02905 17.3085 3.97882 18.9375 2.53141 21.0609C1.084 23.1843 0.307544 25.7022 0.304688 28.2816C0.306837 29.031 0.60203 29.7491 1.12578 30.279C1.64953 30.8089 2.35928 31.1076 3.09997 31.1098H25.4623C26.203 31.1076 26.9127 30.8089 27.4364 30.279C27.9602 29.7491 28.2554 29.031 28.2575 28.2816C28.2548 25.7022 27.4783 23.1843 26.0309 21.0609C24.5835 18.9374 22.5333 17.3084 20.1512 16.3892C18.4634 17.6869 16.4009 18.3874 14.2811 18.383Z" stroke="#B9B9B9"/>
<path d="M14.2814 16.969C18.9127 16.969 22.6672 13.1704 22.6672 8.48451C22.6672 3.79865 18.9127 0 14.2814 0C9.64998 0 5.89551 3.79865 5.89551 8.48451C5.89551 13.1704 9.64998 16.969 14.2814 16.969Z" fill="#2355FF"/>
<path d="M14.2814 16.969C18.9127 16.969 22.6672 13.1704 22.6672 8.48451C22.6672 3.79865 18.9127 0 14.2814 0C9.64998 0 5.89551 3.79865 5.89551 8.48451C5.89551 13.1704 9.64998 16.969 14.2814 16.969Z" stroke="#B9B9B9"/>
</svg>
